<svg width="19" height="20" viewBox="0 0 19 20" fill="none" xmlns="http://www.w3.org/2000/svg">
<path d="M4.366 1L1.66064 4.60714V17.2321C1.66064 17.7105 1.85066 18.1692 2.1889 18.5075C2.52713 18.8457 2.98588 19.0357 3.46422 19.0357H16.0892C16.5676 19.0357 17.0263 18.8457 17.3645 18.5075C17.7028 18.1692 17.8928 17.7105 17.8928 17.2321V4.60714L15.1874 1H4.366Z" stroke="black" stroke-width="1.80357" stroke-linecap="round" stroke-linejoin="round"/>
<path d="M1.66068 4.60718H17.8928" stroke="black" stroke-width="1.80357" stroke-linecap="round" stroke-linejoin="round"/>
<path d="M13.3839 8.21436C13.3839 9.17103 13.0039 10.0885 12.3274 10.765C11.6509 11.4415 10.7334 11.8215 9.77676 11.8215C8.82009 11.8215 7.90259 11.4415 7.22612 10.765C6.54965 10.0885 6.16962 9.17103 6.16962 8.21436" stroke="black" stroke-width="1.80357" stroke-linecap="round" stroke-linejoin="round"/>
</svg>
